<?xml version="1.0" encoding="UTF-8"?>
<svg xmlns="http://www.w3.org/2000/svg" xmlns:xlink="http://www.w3.org/1999/xlink" width="5000px" height="2500px" viewBox="0 0 5000 2500" version="1.1">
<g id="surface1">
<rect x="0" y="0" width="5000" height="2500" style="fill:rgb(54.117647%,100%,61.568627%);fill-opacity:1;stroke:none;"/>
<path style=" stroke:none;fill-rule:nonzero;fill:rgb(54.509804%,100%,78.823529%);fill-opacity:1;" d="M 1518.75 2205.621094 C 1177.191406 2137.5 820.621094 2104.996094 470.941406 2145.003906 C 310.9375 2162.808594 153.125 2196.875 0 2249.371094 L 0 2500 L 2636.871094 2500 C 2274.691406 2396.246094 1915.625 2287.191406 1550.628906 2211.871094 C 1539.996094 2209.683594 1529.378906 2207.8125 1518.75 2205.621094 Z M 1518.75 2205.621094 "/>
<path style=" stroke:none;fill-rule:nonzero;fill:rgb(54.509804%,100%,96.078431%);fill-opacity:1;" d="M 5000 0 L 0 0 L 0 2249.371094 C 153.125 2196.875 310.9375 2162.5 470.941406 2144.683594 C 820.621094 2104.996094 1177.191406 2137.191406 1518.75 2205.316406 C 1529.378906 2207.503906 1539.996094 2209.683594 1550.628906 2211.566406 C 1915.625 2286.566406 2274.691406 2395.941406 2636.871094 2499.691406 L 5000 2499.691406 Z M 5000 0 "/>
<path style=" stroke:none;fill-rule:nonzero;fill:rgb(54.901961%,86.666667%,100%);fill-opacity:1;" d="M 1495.003906 1815.625 C 1504.996094 1818.121094 1514.996094 1820.941406 1524.691406 1823.4375 C 2137.808594 1987.5 2739.371094 2240.625 3379.378906 2375.308594 C 3923.746094 2489.691406 4471.566406 2466.558594 5000 2343.441406 L 5000 0 L 0 0 L 0 1796.566406 C 163.433594 1741.558594 332.8125 1710.003906 503.433594 1700 C 838.753906 1679.378906 1174.066406 1731.878906 1495.003906 1815.625 Z M 1495.003906 1815.625 "/>
<path style=" stroke:none;fill-rule:nonzero;fill:rgb(54.901961%,69.803922%,100%);fill-opacity:1;" d="M 0 0 L 0 1341.878906 C 173.746094 1284.375 354.6875 1256.558594 535.628906 1255.316406 C 856.878906 1252.816406 1170.621094 1326.253906 1470.941406 1425.628906 C 1480.316406 1428.753906 1489.371094 1431.878906 1498.746094 1435.003906 C 2072.503906 1628.753906 2641.558594 1891.558594 3256.25 2035.308594 C 3839.691406 2171.875 4432.183594 2142.816406 4999.691406 1995.941406 L 4999.691406 0 Z M 0 0 "/>
<path style=" stroke:none;fill-rule:nonzero;fill:rgb(57.254902%,55.294118%,100%);fill-opacity:1;" d="M 568.121094 810.628906 C 875 829.378906 1167.816406 920.621094 1447.183594 1035.9375 C 1455.941406 1039.371094 1464.371094 1043.121094 1473.128906 1046.566406 C 2007.503906 1270.3125 2544.058594 1541.878906 3133.441406 1695.621094 C 3754.6875 1857.503906 4394.058594 1823.128906 5000 1649.371094 L 5000 0 L 0 0 L 0 885.003906 C 184.375 823.746094 376.871094 799.066406 568.121094 810.628906 Z M 568.121094 810.628906 "/>
<path style=" stroke:none;fill-rule:nonzero;fill:rgb(60.392157%,66.27451%,100%);fill-opacity:1;" d="M 5000 0 L 0 0 L 0 425.933594 C 194.683594 360.628906 399.066406 339.996094 600.628906 365.933594 C 893.121094 403.753906 1164.691406 514.996094 1423.4375 645.941406 C 1431.558594 650 1439.371094 654.058594 1447.503906 658.121094 C 1942.496094 911.566406 2446.566406 1192.1875 3010.9375 1355.621094 C 3668.75 1546.246094 4357.183594 1508.746094 5000.308594 1303.753906 L 5000.308594 0 Z M 5000 0 "/>
<path style=" stroke:none;fill-rule:nonzero;fill:rgb(65.098039%,77.254902%,100%);fill-opacity:1;" d="M 1421.566406 269.683594 C 1877.191406 553.125 2348.746094 841.558594 2887.808594 1015.625 C 3539.691406 1226.253906 4235.628906 1205.621094 4881.25 999.066406 C 4921.246094 986.246094 4960.628906 972.808594 5000.308594 958.746094 L 5000.308594 0 L 900.308594 0 C 1075.308594 66.558594 1239.996094 158.121094 1399.371094 256.25 C 1406.878906 260.628906 1414.0625 265.316406 1421.566406 269.683594 Z M 1421.566406 269.683594 "/>
<path style=" stroke:none;fill-rule:nonzero;fill:rgb(70.196078%,86.27451%,100%);fill-opacity:1;" d="M 5000 0 L 1556.25 0 C 1925.308594 268.121094 2317.1875 514.0625 2764.996094 675.628906 C 3364.371094 891.878906 4014.996094 909.066406 4624.371094 741.558594 C 4751.871094 706.558594 4877.816406 662.808594 5000.308594 611.246094 L 5000.308594 0 Z M 5000 0 "/>
<path style=" stroke:none;fill-rule:nonzero;fill:rgb(74.901961%,93.333333%,100%);fill-opacity:1;" d="M 4367.1875 483.746094 C 4514.691406 450.628906 4659.683594 404.6875 4800.308594 346.875 C 4868.121094 319.058594 4934.683594 288.128906 5000 254.6875 L 5000 0 L 2010.628906 0 C 2207.183594 130.316406 2415.933594 244.378906 2642.1875 335.628906 C 3188.753906 556.558594 3794.378906 612.808594 4367.1875 483.746094 Z M 4367.1875 483.746094 "/>
<path style=" stroke:none;fill-rule:nonzero;fill:rgb(80%,98.431373%,100%);fill-opacity:1;" d="M 4110.308594 226.253906 C 4345.621094 186.871094 4575.628906 110.308594 4787.808594 0 L 2528.433594 0 C 3021.246094 221.875 3577.191406 315.625 4110.308594 226.253906 Z M 4110.308594 226.253906 "/>
</g>
</svg>
